# Blender 5.2.0 LTS
# www.blender.org
o B41
v -0.000048 0.000179 0.023290
v -0.000580 0.001005 0.023042
v -0.000093 0.000161 0.023290
v -0.000300 0.001121 0.023042
v 0.000000 0.000186 0.023290
v 0.000000 0.001160 0.023042
v 0.000301 0.001121 0.023042
v 0.000048 0.000179 0.023290
v 0.000093 0.000161 0.023290
v -0.000131 0.000131 0.023290
v 0.000132 0.000131 0.023290
v 0.000161 0.000093 0.023290
v -0.000161 0.000093 0.023290
v 0.000180 0.000048 0.023290
v -0.000179 0.000048 0.023290
v -0.000185 0.000000 0.023290
v 0.000186 0.000000 0.023290
v -0.000179 -0.000048 0.023290
v 0.000180 -0.000048 0.023290
v -0.000161 -0.000093 0.023290
v 0.000161 -0.000093 0.023290
v -0.000131 -0.000131 0.023290
v 0.000132 -0.000131 0.023290
v -0.000093 -0.000161 0.023290
v 0.000093 -0.000161 0.023290
v -0.000048 -0.000179 0.023290
v 0.000048 -0.000179 0.023290
v 0.000000 -0.000186 0.023290
v -0.000300 -0.001121 0.023042
v 0.000000 -0.001160 0.023042
v -0.000883 -0.003297 0.022131
v 0.000000 -0.003413 0.022131
v -0.001767 -0.006594 0.019943
v 0.000000 -0.006826 0.019943
v 0.000000 -0.008169 0.017290
v -0.002114 -0.007891 0.017290
v -0.003413 -0.005912 0.019943
v -0.004084 -0.007075 0.017290
v -0.004827 -0.004827 0.019943
v -0.005776 -0.005776 0.017290
v -0.007074 -0.004085 0.017290
v -0.005911 -0.003413 0.019943
v -0.002413 -0.002413 0.022131
v -0.002956 -0.001707 0.022131
v -0.000820 -0.000821 0.023042
v -0.001005 -0.000580 0.023042
v -0.001121 -0.000300 0.023042
v -0.001160 0.000000 0.023042
v -0.001121 0.000300 0.023042
v -0.001005 0.000580 0.023042
v -0.000820 0.000821 0.023042
v -0.002413 0.002413 0.022131
v -0.001706 0.002956 0.022131
v -0.000883 0.003297 0.022131
v 0.000000 0.003413 0.022131
v 0.000884 0.003297 0.022131
v 0.001707 0.002956 0.022131
v 0.000580 0.001005 0.023042
v 0.000821 0.000821 0.023042
v 0.001005 0.000580 0.023042
v 0.001121 0.000300 0.023042
v 0.001161 0.000000 0.023042
v 0.001121 -0.000300 0.023042
v 0.001005 -0.000580 0.023042
v 0.000821 -0.000821 0.023042
v 0.000580 -0.001005 0.023042
v 0.000301 -0.001121 0.023042
v 0.000884 -0.003297 0.022131
v 0.001767 -0.006594 0.019943
v 0.002115 -0.007891 0.017290
v 0.000000 -0.008865 0.012640
v 0.002295 -0.008563 0.012640
v 0.002295 -0.008563 -0.011049
v 0.000000 -0.008865 -0.011049
v -0.002294 -0.008563 0.012640
v -0.002294 -0.008563 -0.011049
v -0.004432 -0.007677 0.012640
v -0.004432 -0.007677 -0.011049
v -0.006268 -0.006269 0.012640
v -0.006268 -0.006269 -0.011049
v -0.007677 -0.004433 -0.011049
v -0.007677 -0.004433 0.012640
v -0.008563 -0.002294 0.012640
v -0.007891 -0.002114 0.017290
v -0.006593 -0.001767 0.019943
v -0.003297 -0.000883 0.022131
v -0.003413 0.000000 0.022131
v -0.003297 0.000883 0.022131
v -0.002956 0.001707 0.022131
v -0.005911 0.003413 0.019943
v -0.004827 0.004827 0.019943
v -0.003413 0.005912 0.019943
v -0.001767 0.006594 0.019943
v 0.000000 0.006826 0.019943
v 0.001767 0.006594 0.019943
v 0.003413 0.005912 0.019943
v 0.004827 0.004827 0.019943
v 0.002414 0.002413 0.022131
v 0.002956 0.001707 0.022131
v 0.003297 0.000883 0.022131
v 0.003413 0.000000 0.022131
v 0.003297 -0.000883 0.022131
v 0.002956 -0.001707 0.022131
v 0.002414 -0.002413 0.022131
v 0.001707 -0.002956 0.022131
v 0.003413 -0.005912 0.019943
v 0.004085 -0.007075 0.017290
v 0.004433 -0.007677 0.012640
v 0.004433 -0.007677 -0.011049
v 0.003635 -0.006295 -0.021803
v 0.001882 -0.007022 -0.021803
v 0.000000 -0.007269 -0.021803
v -0.001881 -0.007022 -0.021803
v -0.003634 -0.006295 -0.021803
v -0.005140 -0.005140 -0.021803
v -0.006295 -0.003635 -0.021803
v -0.007021 -0.001881 -0.021803
v -0.008563 -0.002294 -0.011049
v -0.008865 0.000000 -0.011049
v -0.008865 0.000000 0.012640
v -0.008169 0.000000 0.017290
v -0.006826 0.000000 0.019943
v -0.006593 0.001767 0.019943
v -0.007074 0.004085 0.017290
v -0.007891 0.002114 0.017290
v -0.007677 0.004433 0.012640
v -0.008563 0.002294 0.012640
v -0.007677 0.004433 -0.011049
v -0.008563 0.002294 -0.011049
v -0.006295 0.003635 -0.021803
v -0.007021 0.001881 -0.021803
v -0.005161 0.002980 -0.021803
v -0.005756 0.001542 -0.021803
v -0.007269 0.000000 -0.021803
v -0.005959 0.000000 -0.021803
v -0.005756 -0.001542 -0.021803
v -0.005161 -0.002980 -0.021803
v -0.004214 -0.004214 -0.021803
v -0.002980 -0.005161 -0.021803
v -0.001542 -0.005756 -0.021803
v 0.000000 -0.005960 -0.021803
v 0.001543 -0.005756 -0.021803
v 0.005140 -0.005140 -0.021803
v 0.002980 -0.005161 -0.021803
v 0.002980 -0.005161 -0.019042
v 0.001543 -0.005756 -0.019042
v 0.000000 -0.005960 -0.019042
v -0.001542 -0.005756 -0.019042
v -0.002980 -0.005161 -0.019042
v -0.004214 -0.004214 -0.019042
v -0.005161 -0.002980 -0.019042
v -0.005756 -0.001542 -0.019042
v -0.005959 0.000000 -0.019042
v -0.005756 0.001542 -0.019042
v -0.005161 0.002980 -0.019042
v -0.004214 0.004214 -0.019042
v -0.004214 0.004214 -0.021803
v -0.005140 0.005140 -0.021803
v -0.006268 0.006269 -0.011049
v -0.006268 0.006269 0.012640
v -0.005776 0.005776 0.017290
v -0.004084 0.007075 0.017290
v -0.002114 0.007891 0.017290
v 0.000000 0.008169 0.017290
v 0.002115 0.007891 0.017290
v 0.004085 0.007075 0.017290
v 0.005777 0.005776 0.017290
v 0.007075 0.004085 0.017290
v 0.005912 0.003413 0.019943
v 0.006594 0.001767 0.019943
v 0.006826 0.000000 0.019943
v 0.006594 -0.001767 0.019943
v 0.005912 -0.003413 0.019943
v 0.004827 -0.004827 0.019943
v 0.005777 -0.005776 0.017290
v 0.006269 -0.006269 0.012640
v 0.006269 -0.006269 -0.011049
v 0.007678 -0.004433 -0.011049
v 0.006296 -0.003635 -0.021803
v 0.004214 -0.004214 -0.021803
v 0.004214 -0.004214 -0.019042
v 0.005161 -0.002980 -0.019042
v 0.005757 -0.001542 -0.019042
v 0.005960 0.000000 -0.019042
v 0.005757 0.001542 -0.019042
v 0.005161 0.002980 -0.019042
v 0.004214 0.004214 -0.019042
v -0.002980 0.005161 -0.019042
v -0.002980 0.005161 -0.021803
v -0.003634 0.006295 -0.021803
v -0.004432 0.007677 -0.011049
v -0.004432 0.007677 0.012640
v -0.002294 0.008563 0.012640
v 0.000000 0.008865 0.012640
v 0.002295 0.008563 0.012640
v 0.004433 0.007677 0.012640
v 0.006269 0.006269 0.012640
v 0.007678 0.004433 0.012640
v 0.008563 0.002294 0.012640
v 0.007891 0.002114 0.017290
v 0.008169 0.000000 0.017290
v 0.007891 -0.002114 0.017290
v 0.007075 -0.004085 0.017290
v 0.007678 -0.004433 0.012640
v 0.008563 -0.002294 0.012640
v 0.008563 -0.002294 -0.011049
v 0.007022 -0.001881 -0.021803
v 0.005161 -0.002980 -0.021803
v 0.005757 -0.001542 -0.021803
v 0.005960 0.000000 -0.021803
v 0.005757 0.001542 -0.021803
v 0.005161 0.002980 -0.021803
v 0.004214 0.004214 -0.021803
v 0.002980 0.005161 -0.019042
v 0.002980 0.005161 -0.021803
v 0.001543 0.005757 -0.019042
v 0.001543 0.005757 -0.021803
v 0.000000 0.005960 -0.019042
v 0.000000 0.005960 -0.021803
v -0.001542 0.005757 -0.019042
v -0.001542 0.005757 -0.021803
v 0.003635 0.006295 -0.021803
v 0.005140 0.005140 -0.021803
v 0.006296 0.003635 -0.021803
v 0.007022 0.001881 -0.021803
v 0.007270 0.000000 -0.021803
v 0.008865 0.000000 -0.011049
v 0.008865 0.000000 0.012640
v 0.008563 0.002294 -0.011049
v 0.007678 0.004433 -0.011049
v 0.006269 0.006269 -0.011049
v 0.004433 0.007677 -0.011049
v 0.002295 0.008563 -0.011049
v 0.001882 0.007022 -0.021803
v -0.001881 0.007022 -0.021803
v -0.002294 0.008563 -0.011049
v 0.000000 0.008865 -0.011049
v 0.000000 0.007269 -0.021803
v -0.000580 -0.001005 0.023042
v -0.001706 -0.002956 0.022131
v 0.002385 -0.009125 -0.008767
v -0.002384 -0.009125 -0.008767
v 0.000000 -0.009447 -0.008767
v 0.004607 -0.008181 -0.008767
v 0.004607 -0.008181 -0.009813
v 0.002385 -0.009125 -0.009813
v 0.000000 -0.009447 -0.009813
v -0.002384 -0.009125 -0.009813
v -0.004606 -0.008181 -0.008767
v -0.004606 -0.008181 -0.009813
v -0.006515 -0.006680 -0.008767
v -0.006515 -0.006680 -0.009813
v -0.007979 -0.004723 -0.009813
v -0.007979 -0.004723 -0.008767
v 0.007979 -0.004723 -0.008767
v 0.006515 -0.006680 -0.008767
v 0.006515 -0.006680 -0.009813
v 0.007979 -0.004723 -0.009813
v 0.008900 -0.002445 -0.009813
v -0.008899 -0.002445 -0.009813
v -0.008899 -0.002445 -0.008767
v 0.008900 -0.002445 -0.008767
v 0.009214 0.000000 -0.008767
v 0.009214 0.000000 -0.009813
v -0.009213 0.000000 -0.009813
v -0.009213 0.000000 -0.008767
v 0.008900 0.002445 -0.008767
v 0.008900 0.002445 -0.009813
v -0.008899 0.002445 -0.009813
v -0.008899 0.002445 -0.008767
v 0.007979 0.004723 -0.008767
v 0.007979 0.004723 -0.009813
v -0.007979 0.004723 -0.009813
v -0.007979 0.004723 -0.008767
v 0.006515 0.006680 -0.008767
v 0.006515 0.006680 -0.009813
v -0.006515 0.006680 -0.009813
v -0.006515 0.006680 -0.008767
v 0.004607 0.008181 -0.008767
v 0.004607 0.008181 -0.009813
v -0.004606 0.008181 -0.009813
v -0.004606 0.008181 -0.008767
v 0.002385 0.009125 -0.008767
v 0.002385 0.009125 -0.009813
v -0.002384 0.009125 -0.009813
v -0.002384 0.009125 -0.008767
v 0.000000 0.009447 -0.008767
v 0.000000 0.009447 -0.009813
v 0.002385 -0.009125 -0.003099
v -0.002384 -0.009125 -0.003099
v 0.000000 -0.009447 -0.003099
v 0.004607 -0.008181 -0.003099
v 0.004607 -0.008181 -0.004145
v 0.002385 -0.009125 -0.004145
v 0.000000 -0.009447 -0.004145
v -0.002384 -0.009125 -0.004145
v -0.004606 -0.008181 -0.003099
v -0.004606 -0.008181 -0.004145
v -0.006515 -0.006680 -0.003099
v -0.006515 -0.006680 -0.004145
v -0.007979 -0.004723 -0.004145
v -0.007979 -0.004723 -0.003099
v 0.007979 -0.004723 -0.003099
v 0.006515 -0.006680 -0.003099
v 0.006515 -0.006680 -0.004145
v 0.007979 -0.004723 -0.004145
v 0.008900 -0.002445 -0.004145
v -0.008899 -0.002445 -0.004145
v -0.008899 -0.002445 -0.003099
v 0.008900 -0.002445 -0.003099
v 0.009214 0.000000 -0.003099
v 0.009214 0.000000 -0.004145
v -0.009213 0.000000 -0.004145
v -0.009213 0.000000 -0.003099
v 0.008900 0.002445 -0.003099
v 0.008900 0.002445 -0.004145
v -0.008899 0.002445 -0.004145
v -0.008899 0.002445 -0.003099
v 0.007979 0.004723 -0.003099
v 0.007979 0.004723 -0.004145
v -0.007979 0.004723 -0.004145
v -0.007979 0.004723 -0.003099
v 0.006515 0.006680 -0.003099
v 0.006515 0.006680 -0.004145
v -0.006515 0.006680 -0.004145
v -0.006515 0.006680 -0.003099
v 0.004607 0.008181 -0.003099
v 0.004607 0.008181 -0.004145
v -0.004606 0.008181 -0.004145
v -0.004606 0.008181 -0.003099
v 0.002385 0.009125 -0.003099
v 0.002385 0.009125 -0.004145
v -0.002384 0.009125 -0.004145
v -0.002384 0.009125 -0.003099
v 0.000000 0.009447 -0.003099
v 0.000000 0.009447 -0.004145
v -0.008761 0.008574 -0.021283
v -0.004604 0.004721 -0.021283
v -0.004808 0.004521 -0.021283
v -0.008556 0.008774 -0.021283
v -0.009063 0.009293 -0.017673
v -0.009279 0.009082 -0.017673
v -0.005093 0.004789 -0.017673
v -0.004876 0.005000 -0.017673
v -0.004685 0.004406 -0.011133
v -0.008537 0.008355 -0.011133
v -0.004486 0.004600 -0.011133
v -0.008338 0.008549 -0.011133
v 0.004604 0.004721 -0.021283
v 0.008767 0.008587 -0.021283
v 0.004805 0.004525 -0.021283
v 0.008566 0.008783 -0.021283
v 0.004877 0.005000 -0.017673
v 0.009073 0.009303 -0.017673
v 0.009285 0.009096 -0.017673
v 0.005089 0.004793 -0.017673
v 0.004682 0.004410 -0.011133
v 0.004487 0.004600 -0.011133
v 0.008543 0.008368 -0.011133
v 0.008347 0.008559 -0.011133
v -0.004486 -0.004600 -0.011133
v -0.008537 -0.008355 -0.011133
v -0.008347 -0.008559 -0.011133
v -0.004685 -0.004406 -0.011133
v -0.004876 -0.005000 -0.017673
v -0.005093 -0.004789 -0.017673
v -0.009279 -0.009082 -0.017673
v -0.009073 -0.009303 -0.017673
v -0.008761 -0.008574 -0.021283
v -0.004808 -0.004521 -0.021283
v -0.004604 -0.004721 -0.021283
v -0.008566 -0.008783 -0.021283
v 0.008543 -0.008368 -0.011133
v 0.004487 -0.004600 -0.011133
v 0.008347 -0.008559 -0.011133
v 0.004682 -0.004410 -0.011133
v 0.009285 -0.009096 -0.017673
v 0.005089 -0.004793 -0.017673
v 0.004877 -0.005000 -0.017673
v 0.009073 -0.009303 -0.017673
v 0.008767 -0.008587 -0.021283
v 0.008566 -0.008783 -0.021283
v 0.004604 -0.004721 -0.021283
v 0.004805 -0.004525 -0.021283
vn -0.0636 0.2375 0.9693
vn -0.1230 0.2130 0.9693
vn -0.0000 0.2459 0.9693
vn 0.0636 0.2375 0.9693
vn -0.0000 -0.0000 1.0000
vn -0.0000 0.0001 1.0000
vn -0.0000 -0.0001 1.0000
vn -0.0000 -0.0002 1.0000
vn -0.0636 -0.2375 0.9693
vn -0.0000 -0.2459 0.9693
vn -0.0971 -0.3623 0.9270
vn -0.0000 -0.3751 0.9270
vn -0.1397 -0.5212 0.8419
vn -0.0000 -0.5396 0.8419
vn -0.2309 -0.8618 0.4517
vn -0.0000 -0.8922 0.4517
vn -0.4461 -0.7727 0.4517
vn -0.6309 -0.6309 0.4517
vn -0.7727 -0.4461 0.4517
vn -0.3816 -0.3816 0.8419
vn -0.4673 -0.2698 0.8419
vn -0.2652 -0.2652 0.9270
vn -0.3248 -0.1875 0.9270
vn -0.1739 -0.1739 0.9693
vn -0.2130 -0.1230 0.9693
vn -0.2375 -0.0636 0.9693
vn -0.2459 -0.0000 0.9693
vn -0.2375 0.0637 0.9693
vn -0.2375 0.0636 0.9693
vn -0.2130 0.1230 0.9693
vn -0.1739 0.1739 0.9693
vn -0.1875 0.3248 0.9270
vn -0.2652 0.2652 0.9270
vn -0.0971 0.3623 0.9270
vn -0.0000 0.3751 0.9270
vn 0.0971 0.3623 0.9270
vn 0.1875 0.3248 0.9270
vn 0.1230 0.2130 0.9693
vn 0.1739 0.1739 0.9693
vn 0.2130 0.1230 0.9693
vn 0.2375 0.0636 0.9693
vn 0.2375 0.0637 0.9693
vn 0.2459 -0.0000 0.9693
vn 0.2375 -0.0637 0.9693
vn 0.2375 -0.0636 0.9693
vn 0.2130 -0.1230 0.9693
vn 0.1739 -0.1739 0.9693
vn 0.1230 -0.2130 0.9693
vn 0.0636 -0.2375 0.9693
vn 0.0971 -0.3623 0.9270
vn 0.1397 -0.5212 0.8419
vn 0.2309 -0.8618 0.4517
vn -0.0000 -0.9890 0.1480
vn 0.2560 -0.9553 0.1480
vn -0.0000 -1.0000 -0.0000
vn 0.2588 -0.9659 -0.0000
vn -0.2588 -0.9659 -0.0000
vn -0.5000 -0.8660 -0.0000
vn -0.7071 -0.7071 -0.0000
vn -0.8660 -0.5000 -0.0000
vn -0.6993 -0.6993 0.1480
vn -0.8565 -0.4945 0.1480
vn -0.9553 -0.2560 0.1480
vn -0.8618 -0.2309 0.4517
vn -0.5212 -0.1397 0.8419
vn -0.3623 -0.0971 0.9270
vn -0.3751 -0.0000 0.9270
vn -0.3623 0.0971 0.9270
vn -0.3248 0.1875 0.9270
vn -0.3816 0.3816 0.8419
vn -0.4673 0.2698 0.8419
vn -0.2698 0.4673 0.8419
vn -0.1397 0.5212 0.8419
vn -0.0000 0.5396 0.8419
vn 0.1397 0.5212 0.8419
vn 0.2698 0.4673 0.8419
vn 0.3816 0.3816 0.8419
vn 0.2652 0.2652 0.9270
vn 0.3248 0.1875 0.9270
vn 0.3623 0.0971 0.9270
vn 0.3751 -0.0000 0.9270
vn 0.3623 -0.0971 0.9270
vn 0.3248 -0.1875 0.9270
vn 0.2652 -0.2652 0.9270
vn 0.1875 -0.3248 0.9270
vn 0.2698 -0.4673 0.8419
vn 0.4461 -0.7727 0.4517
vn 0.4945 -0.8565 0.1480
vn 0.5000 -0.8660 -0.0000
vn 0.2560 -0.9555 -0.1468
vn 0.4946 -0.8566 -0.1468
vn -0.0000 -0.9892 -0.1468
vn -0.2560 -0.9555 -0.1468
vn -0.4946 -0.8566 -0.1468
vn -0.6994 -0.6995 -0.1468
vn -0.8566 -0.4946 -0.1468
vn -0.9555 -0.2560 -0.1468
vn -0.9659 -0.2588 -0.0000
vn -1.0000 -0.0000 -0.0000
vn -0.9890 -0.0000 0.1480
vn -0.8922 -0.0000 0.4517
vn -0.5396 -0.0000 0.8419
vn -0.5212 0.1397 0.8419
vn -0.7727 0.4461 0.4517
vn -0.8618 0.2309 0.4517
vn -0.8565 0.4945 0.1480
vn -0.9553 0.2560 0.1480
vn -0.8660 0.5000 -0.0000
vn -0.9659 0.2588 -0.0000
vn -0.8566 0.4946 -0.1468
vn -0.9555 0.2560 -0.1468
vn -0.0000 -0.0000 -1.0000
vn -0.2588 0.9659 -0.0000
vn -0.5000 0.8660 -0.0000
vn -0.0000 1.0000 -0.0000
vn 0.2588 0.9659 -0.0000
vn 0.5000 0.8660 -0.0000
vn 0.7071 0.7071 -0.0000
vn 0.8660 0.5000 -0.0000
vn 0.9659 0.2588 -0.0000
vn 1.0000 -0.0000 -0.0000
vn 0.9659 -0.2588 -0.0000
vn 0.8660 -0.5000 -0.0000
vn 0.7071 -0.7071 -0.0000
vn -0.6994 0.6995 -0.1468
vn -0.6994 0.6994 -0.1468
vn -0.7071 0.7071 -0.0000
vn -0.6993 0.6993 0.1480
vn -0.6309 0.6309 0.4517
vn -0.4461 0.7727 0.4517
vn -0.2309 0.8618 0.4517
vn -0.0000 0.8922 0.4517
vn -0.0000 0.8922 0.4516
vn 0.2309 0.8618 0.4517
vn 0.4461 0.7727 0.4517
vn 0.6309 0.6309 0.4517
vn 0.7727 0.4461 0.4517
vn 0.4673 0.2698 0.8419
vn 0.5212 0.1397 0.8419
vn 0.5396 -0.0000 0.8419
vn 0.5212 -0.1397 0.8419
vn 0.4673 -0.2698 0.8419
vn 0.3816 -0.3816 0.8419
vn 0.6309 -0.6309 0.4517
vn 0.6993 -0.6993 0.1480
vn 0.6994 -0.6995 -0.1468
vn 0.8566 -0.4946 -0.1468
vn -0.4946 0.8566 -0.1468
vn -0.4945 0.8565 0.1480
vn -0.2560 0.9553 0.1480
vn -0.0000 0.9890 0.1480
vn 0.2560 0.9553 0.1480
vn 0.4945 0.8565 0.1480
vn 0.6993 0.6993 0.1480
vn 0.8565 0.4945 0.1480
vn 0.9553 0.2560 0.1480
vn 0.8618 0.2309 0.4517
vn 0.8922 -0.0000 0.4517
vn 0.8618 -0.2309 0.4517
vn 0.7727 -0.4461 0.4517
vn 0.8565 -0.4945 0.1480
vn 0.9555 -0.2560 -0.1468
vn 0.9892 -0.0000 -0.1468
vn 0.9890 -0.0000 0.1480
vn 0.9553 -0.2560 0.1480
vn 0.9555 0.2560 -0.1468
vn 0.8566 0.4946 -0.1468
vn 0.6994 0.6995 -0.1468
vn 0.4946 0.8566 -0.1468
vn 0.2560 0.9555 -0.1468
vn -0.2560 0.9555 -0.1468
vn -0.0000 0.9892 -0.1468
vn -0.9892 -0.0000 -0.1468
vn -0.4945 -0.8565 0.1480
vn -0.2560 -0.9553 0.1480
vn -0.1230 -0.2130 0.9693
vn -0.1875 -0.3248 0.9270
vn -0.2698 -0.4673 0.8419
vn 0.2647 -0.9643 -0.0000
vn 0.5091 -0.8607 -0.0000
vn -0.2647 -0.9643 -0.0000
vn -0.5091 -0.8607 -0.0000
vn -0.7156 -0.6985 -0.0000
vn -0.8712 -0.4910 -0.0000
vn 0.7156 -0.6985 -0.0000
vn -0.9675 -0.2530 -0.0000
vn 0.8712 -0.4910 -0.0000
vn 0.9675 -0.2530 -0.0000
vn 0.9675 0.2530 -0.0000
vn -0.9675 0.2530 -0.0000
vn 0.8712 0.4910 -0.0000
vn -0.8712 0.4910 -0.0000
vn 0.7156 0.6985 -0.0000
vn -0.7156 0.6985 -0.0000
vn 0.5091 0.8607 -0.0000
vn -0.5091 0.8607 -0.0000
vn 0.2647 0.9643 -0.0000
vn -0.2647 0.9643 -0.0000
vn -0.6845 0.7019 -0.1971
vn -0.6847 0.7017 -0.1970
vn -0.7159 -0.6982 -0.0047
vn 0.6942 -0.7117 0.1075
vn 0.6943 -0.7116 0.1075
vn 0.6944 -0.7116 0.1075
vn 0.6941 -0.7118 0.1075
vn 0.7159 0.6982 -0.0000
vn -0.7159 -0.6982 0.0037
vn 0.6957 -0.7133 -0.0852
vn 0.6959 -0.7131 -0.0851
vn -0.6897 0.7069 0.1568
vn -0.6896 0.7070 0.1569
vn -0.7159 0.6982 -0.0000
vn -0.6957 -0.7133 -0.0851
vn -0.6956 -0.7133 -0.0851
vn 0.6896 0.7070 0.1570
vn 0.7159 -0.6982 0.0036
vn 0.7159 -0.6982 -0.0046
vn 0.7159 -0.6982 -0.0045
vn -0.6941 -0.7118 0.1075
vn -0.6942 -0.7118 0.1075
vn 0.6846 0.7017 -0.1972
vn 0.6845 0.7018 -0.1972
vn 0.6847 0.7017 -0.1972
vn 0.6957 0.7133 -0.0852
vn -0.7214 -0.6745 0.1569
vn -0.7214 -0.6746 0.1569
vn -0.7159 0.6982 0.0037
vn -0.7159 0.6982 -0.0047
vn 0.6942 0.7117 0.1075
vn 0.6941 0.7118 0.1075
vn 0.7159 -0.6982 -0.0000
vn -0.7161 -0.6696 -0.1971
vn 0.7159 0.6982 0.0036
vn -0.7159 -0.6982 -0.0000
vn 0.6896 -0.7070 0.1570
vn 0.6845 -0.7018 -0.1972
vn 0.6845 -0.7019 -0.1972
vn -0.6941 0.7118 0.1075
vn -0.6942 0.7118 0.1075
vn -0.6956 0.7133 -0.0851
vn -0.6957 0.7133 -0.0851
vn 0.7159 0.6982 -0.0046
vt 0.212107 0.208011
vt 0.198649 0.228890
vt 0.210974 0.207542
vt 0.205727 0.231821
vt 0.213322 0.208171
vt 0.213322 0.232821
vt 0.220917 0.231821
vt 0.214537 0.208011
vt 0.239062 0.531568
vt 0.239062 0.531848
vt 0.210002 0.206796
vt 0.215669 0.207542
vt 0.216642 0.206796
vt 0.217388 0.205823
vt 0.209256 0.205823
vt 0.217857 0.204691
vt 0.208786 0.204691
vt 0.208626 0.203475
vt 0.218017 0.203475
vt 0.208786 0.202260
vt 0.217857 0.202260
vt 0.209256 0.201128
vt 0.217388 0.201128
vt 0.210002 0.200156
vt 0.216642 0.200156
vt 0.210974 0.199409
vt 0.215669 0.199409
vt 0.239062 0.526428
vt 0.239062 0.526708
vt 0.214537 0.198940
vt 0.212107 0.198940
vt 0.213322 0.198780
vt 0.205727 0.175130
vt 0.213322 0.174130
vt 0.190983 0.120106
vt 0.213322 0.117165
vt 0.168644 0.036737
vt 0.213322 0.030855
vt 0.289631 0.429498
vt 0.329723 0.405687
vt 0.289631 0.425983
vt 0.329723 0.409893
vt 0.289631 0.439803
vt 0.329723 0.422226
vt 0.289631 0.456196
vt 0.329723 0.441845
vt 0.329723 0.467412
vt 0.289631 0.477560
vt 0.152291 0.142445
vt 0.063828 0.117165
vt 0.091260 0.081414
vt 0.138575 0.160320
vt 0.192571 0.182725
vt 0.187908 0.188803
vt 0.184976 0.195880
vt 0.183976 0.203475
vt 0.184976 0.211071
vt 0.187908 0.218148
vt 0.192571 0.224226
vt 0.152291 0.264506
vt 0.170167 0.278222
vt 0.190983 0.286845
vt 0.213322 0.289786
vt 0.235661 0.286845
vt 0.256477 0.278222
vt 0.227995 0.228890
vt 0.234072 0.224226
vt 0.238736 0.218148
vt 0.241668 0.211071
vt 0.242667 0.203475
vt 0.241668 0.195880
vt 0.238736 0.188803
vt 0.234072 0.182725
vt 0.227995 0.178062
vt 0.220917 0.175130
vt 0.235661 0.120106
vt 0.257999 0.036737
vt 0.400001 0.395170
vt 0.400001 0.399735
vt 0.757979 0.399735
vt 0.757979 0.395170
vt 0.400001 0.413119
vt 0.757979 0.413119
vt 0.400001 0.434409
vt 0.757979 0.434409
vt 0.757979 0.462154
vt 0.400001 0.462154
vt 0.400001 0.494465
vt 0.329723 0.497186
vt 0.289631 0.502439
vt 0.046583 0.158798
vt 0.129953 0.181137
vt 0.127011 0.203475
vt 0.129953 0.225814
vt 0.138575 0.246631
vt 0.063828 0.289786
vt 0.091260 0.325536
vt 0.127011 0.352970
vt 0.168644 0.370214
vt 0.213322 0.376098
vt 0.257999 0.370214
vt 0.299632 0.352970
vt 0.335383 0.325536
vt 0.274352 0.264506
vt 0.288069 0.246631
vt 0.296691 0.225814
vt 0.299632 0.203475
vt 0.296691 0.181137
vt 0.288069 0.160320
vt 0.274352 0.142445
vt 0.256477 0.128728
vt 0.299632 0.053982
vt 0.920497 0.434002
vt 0.920497 0.423028
vt 0.920497 0.419284
vt 0.920497 0.451460
vt 0.920497 0.474211
vt 0.920497 0.500706
vt 0.757979 0.494465
vt 0.757979 0.529138
vt 0.400001 0.529138
vt 0.329723 0.529138
vt 0.289631 0.529138
vt 0.040701 0.203475
vt 0.046583 0.248153
vt 0.329723 0.590864
vt 0.289631 0.555836
vt 0.289631 0.580715
vt 0.329723 0.561089
vt 0.400001 0.596122
vt 0.400001 0.563811
vt 0.757979 0.596122
vt 0.757979 0.563811
vt 0.920497 0.584065
vt 0.920497 0.557570
vt 0.920497 0.574168
vt 0.920497 0.552447
vt 0.920497 0.529138
vt 0.920497 0.505829
vt 0.920497 0.484108
vt 0.920497 0.465456
vt 0.920497 0.451144
vt 0.920497 0.442147
vt 0.920497 0.439078
vt 0.878769 0.451144
vt 0.878769 0.442147
vt 0.878769 0.439078
vt 0.878769 0.465456
vt 0.878769 0.484108
vt 0.878769 0.505829
vt 0.878769 0.529138
vt 0.878769 0.552447
vt 0.878769 0.574168
vt 0.878769 0.592820
vt 0.920497 0.592820
vt 0.920497 0.606816
vt 0.757979 0.623867
vt 0.400001 0.623867
vt 0.329723 0.616431
vt 0.289631 0.602079
vt 0.329723 0.636049
vt 0.289631 0.618473
vt 0.329723 0.648383
vt 0.289631 0.628778
vt 0.329723 0.652589
vt 0.289631 0.632294
vt 0.362815 0.289786
vt 0.380061 0.248153
vt 0.385942 0.203475
vt 0.380061 0.158798
vt 0.362815 0.117165
vt 0.335383 0.081414
vt 0.878769 0.607132
vt 0.920497 0.607132
vt 0.920497 0.624273
vt 0.757979 0.645157
vt 0.400001 0.645157
vt 0.400001 0.658541
vt 0.400001 0.663106
vt 0.878769 0.616130
vt 0.920497 0.616130
vt 0.878769 0.619198
vt 0.920497 0.619198
vt 0.757979 0.658541
vt 0.920497 0.635248
vt 0.757979 0.663106
vt 0.920497 0.638992
vt 0.198649 0.178062
vt 0.170167 0.128728
vt 0.127011 0.053982
vt 0.721648 0.768188
vt 0.721648 0.765124
vt 0.721648 0.777172
vt 0.731608 0.777172
vt 0.731608 0.768188
vt 0.731608 0.765124
vt 0.721648 0.791463
vt 0.731608 0.791463
vt 0.731608 0.810088
vt 0.721648 0.810088
vt 0.731608 0.831777
vt 0.721648 0.831777
vt 0.721648 0.855052
vt 0.731608 0.855052
vt 0.721648 0.878327
vt 0.731608 0.878327
vt 0.721648 0.900016
vt 0.731608 0.900016
vt 0.721648 0.918641
vt 0.731608 0.918641
vt 0.721648 0.932932
vt 0.731608 0.932932
vt 0.721648 0.941916
vt 0.731608 0.941916
vt 0.721648 0.944980
vt 0.731608 0.944980
vt 0.762730 0.766297
vt 0.762730 0.763232
vt 0.762730 0.775280
vt 0.772691 0.775280
vt 0.772691 0.766297
vt 0.772691 0.763232
vt 0.762730 0.789572
vt 0.772691 0.789572
vt 0.772691 0.808196
vt 0.762730 0.808196
vt 0.772691 0.829885
vt 0.762730 0.829885
vt 0.762730 0.853160
vt 0.772691 0.853160
vt 0.762730 0.876436
vt 0.772691 0.876436
vt 0.762730 0.898124
vt 0.772691 0.898124
vt 0.762730 0.916749
vt 0.772691 0.916749
vt 0.762730 0.931040
vt 0.772691 0.931040
vt 0.762730 0.940024
vt 0.772691 0.940024
vt 0.762730 0.943088
vt 0.772691 0.943088
vt 0.965927 0.941311
vt 0.965927 0.904627
vt 0.965927 0.902730
vt 0.965927 0.943207
vt 0.931563 0.948152
vt 0.931563 0.946142
vt 0.931563 0.905278
vt 0.931563 0.907288
vt 0.869308 0.901631
vt 0.869308 0.939226
vt 0.869308 0.903479
vt 0.869308 0.941074
vt 0.965927 0.941435
vt 0.965927 0.902766
vt 0.965927 0.943297
vt 0.931563 0.948246
vt 0.931563 0.946274
vt 0.931563 0.905316
vt 0.869308 0.901666
vt 0.869308 0.939347
vt 0.869308 0.941161
vt 0.869308 0.815898
vt 0.869308 0.780152
vt 0.869308 0.778216
vt 0.869308 0.817747
vt 0.931563 0.812090
vt 0.931563 0.814099
vt 0.931563 0.773235
vt 0.931563 0.771131
vt 0.965927 0.778067
vt 0.965927 0.816647
vt 0.965927 0.814750
vt 0.965927 0.776081
vt 0.869308 0.780030
vt 0.869308 0.817712
vt 0.931563 0.773103
vt 0.931563 0.814062
vt 0.965927 0.777942
vt 0.965927 0.816612
s 1
f 1/1/1 2/2/2 3/3/2
f 2/2/2 1/1/1 4/4/1
f 5/5/3 4/4/1 1/1/1
f 4/4/1 5/5/3 6/6/3
f 5/5/3 7/7/4 6/6/3
f 7/7/4 5/5/3 8/8/4
f 1/1/5 8/8/6 5/5/5
f 3/9/7 8/10/6 1/10/5
f 3/9/7 9/9/6 8/10/6
f 10/11/5 9/12/6 3/3/7
f 10/11/5 11/13/5 9/12/6
f 10/11/5 12/14/5 11/13/5
f 13/15/5 12/14/5 10/11/5
f 13/15/5 14/16/5 12/14/5
f 15/17/5 14/16/5 13/15/5
f 16/18/5 14/16/5 15/17/5
f 16/18/5 17/19/5 14/16/5
f 18/20/5 17/19/5 16/18/5
f 18/20/5 19/21/5 17/19/5
f 20/22/5 19/21/5 18/20/5
f 20/22/5 21/23/5 19/21/5
f 22/24/7 21/23/5 20/22/5
f 22/24/7 23/25/6 21/23/5
f 24/26/5 23/25/6 22/24/7
f 24/26/5 25/27/6 23/25/6
f 26/28/8 25/29/6 24/29/5
f 26/28/8 27/28/5 25/29/6
f 27/30/5 26/31/8 28/32/5
f 29/33/9 28/32/10 26/31/9
f 28/32/10 29/33/9 30/34/10
f 31/35/11 30/34/12 29/33/11
f 30/34/12 31/35/11 32/36/12
f 33/37/13 32/36/14 31/35/13
f 32/36/14 33/37/13 34/38/14
f 33/39/15 35/40/16 34/41/16
f 35/40/16 33/39/15 36/42/15
f 37/43/17 36/42/15 33/39/15
f 36/42/15 37/43/17 38/44/17
f 39/45/18 38/44/17 37/43/17
f 38/44/17 39/45/18 40/46/18
f 39/45/18 41/47/19 40/46/18
f 41/47/19 39/45/18 42/48/19
f 43/49/20 42/50/21 39/51/20
f 42/50/21 43/49/20 44/52/21
f 45/53/22 44/52/23 43/49/22
f 44/52/23 45/53/22 46/54/23
f 22/24/24 46/54/25 45/53/24
f 46/54/25 22/24/24 20/22/25
f 20/22/25 47/55/26 46/54/25
f 47/55/26 20/22/25 18/20/26
f 18/20/26 48/56/27 47/55/26
f 48/56/27 18/20/26 16/18/27
f 15/17/28 48/56/27 16/18/27
f 48/56/27 15/17/28 49/57/29
f 13/15/30 49/57/29 15/17/28
f 49/57/29 13/15/30 50/58/30
f 10/11/31 50/58/30 13/15/30
f 50/58/30 10/11/31 51/59/31
f 3/3/2 51/59/31 10/11/31
f 51/59/31 3/3/2 2/2/2
f 2/2/32 52/60/33 51/59/33
f 52/60/33 2/2/32 53/61/32
f 4/4/34 53/61/32 2/2/32
f 53/61/32 4/4/34 54/62/34
f 6/6/35 54/62/34 4/4/34
f 54/62/34 6/6/35 55/63/35
f 6/6/35 56/64/36 55/63/35
f 56/64/36 6/6/35 7/7/36
f 7/7/36 57/65/37 56/64/36
f 57/65/37 7/7/36 58/66/37
f 8/8/4 58/66/38 7/7/4
f 58/66/38 8/8/4 9/12/38
f 9/12/38 59/67/39 58/66/38
f 59/67/39 9/12/38 11/13/39
f 11/13/39 60/68/40 59/67/39
f 60/68/40 11/13/39 12/14/40
f 12/14/40 61/69/41 60/68/40
f 61/69/41 12/14/40 14/16/42
f 14/16/42 62/70/43 61/69/41
f 62/70/43 14/16/42 17/19/43
f 19/21/44 62/70/43 17/19/43
f 62/70/43 19/21/44 63/71/45
f 21/23/46 63/71/45 19/21/44
f 63/71/45 21/23/46 64/72/46
f 23/25/47 64/72/46 21/23/46
f 64/72/46 23/25/47 65/73/47
f 25/27/48 65/73/47 23/25/47
f 65/73/47 25/27/48 66/74/48
f 27/30/49 66/74/48 25/27/48
f 66/74/48 27/30/49 67/75/49
f 28/32/10 67/75/49 27/30/49
f 67/75/49 28/32/10 30/34/10
f 30/34/12 68/76/50 67/75/50
f 68/76/50 30/34/12 32/36/12
f 32/36/14 69/77/51 68/76/51
f 69/77/51 32/36/14 34/38/14
f 35/40/16 69/39/52 34/41/16
f 69/39/52 35/40/16 70/42/52
f 71/78/53 70/42/54 35/40/53
f 70/42/54 71/78/53 72/79/54
f 71/78/55 73/80/56 72/79/56
f 73/80/56 71/78/55 74/81/55
f 75/79/57 74/81/55 71/78/55
f 74/81/55 75/79/57 76/80/57
f 77/82/58 76/80/57 75/79/57
f 76/80/57 77/82/58 78/83/58
f 79/84/59 78/83/58 77/82/58
f 78/83/58 79/84/59 80/85/59
f 79/84/59 81/86/60 80/85/59
f 81/86/60 79/84/59 82/87/60
f 40/46/61 82/87/62 79/84/61
f 82/87/62 40/46/61 41/47/62
f 41/47/62 83/88/63 82/87/62
f 83/88/63 41/47/62 84/89/63
f 42/48/19 84/89/64 41/47/19
f 84/89/64 42/48/19 85/90/64
f 44/52/21 85/91/65 42/50/21
f 85/91/65 44/52/21 86/92/65
f 46/54/23 86/92/66 44/52/23
f 86/92/66 46/54/23 47/55/66
f 47/55/66 87/93/67 86/92/66
f 87/93/67 47/55/66 48/56/67
f 48/56/67 88/94/68 87/93/67
f 88/94/68 48/56/67 49/57/68
f 50/58/69 88/94/68 49/57/68
f 88/94/68 50/58/69 89/95/69
f 51/59/33 89/95/69 50/58/69
f 89/95/69 51/59/33 52/60/33
f 52/60/70 90/96/71 89/95/71
f 90/96/71 52/60/70 91/97/70
f 53/61/72 91/97/70 52/60/70
f 91/97/70 53/61/72 92/98/72
f 54/62/73 92/98/72 53/61/72
f 92/98/72 54/62/73 93/99/73
f 55/63/74 93/99/73 54/62/73
f 93/99/73 55/63/74 94/100/74
f 55/63/74 95/101/75 94/100/74
f 95/101/75 55/63/74 56/64/75
f 56/64/75 96/102/76 95/101/75
f 96/102/76 56/64/75 57/65/76
f 57/65/76 97/103/77 96/102/76
f 97/103/77 57/65/76 98/104/77
f 58/66/37 98/104/78 57/65/37
f 98/104/78 58/66/37 59/67/78
f 59/67/78 99/105/79 98/104/78
f 99/105/79 59/67/78 60/68/79
f 60/68/79 100/106/80 99/105/79
f 100/106/80 60/68/79 61/69/80
f 62/70/81 100/106/80 61/69/80
f 100/106/80 62/70/81 101/107/81
f 63/71/82 101/107/81 62/70/81
f 101/107/81 63/71/82 102/108/82
f 64/72/83 102/108/82 63/71/82
f 102/108/82 64/72/83 103/109/83
f 65/73/84 103/109/83 64/72/83
f 103/109/83 65/73/84 104/110/84
f 66/74/85 104/110/84 65/73/84
f 104/110/84 66/74/85 105/111/85
f 67/75/50 105/111/85 66/74/85
f 105/111/85 67/75/50 68/76/50
f 68/76/51 106/112/86 105/111/86
f 106/112/86 68/76/51 69/77/51
f 70/42/52 106/43/87 69/39/52
f 106/43/87 70/42/52 107/44/87
f 72/79/54 107/44/88 70/42/54
f 107/44/88 72/79/54 108/82/88
f 72/79/56 109/83/89 108/82/89
f 109/83/89 72/79/56 73/80/56
f 73/80/90 110/113/91 109/83/91
f 110/113/91 73/80/90 111/114/90
f 74/81/92 111/114/90 73/80/90
f 111/114/90 74/81/92 112/115/92
f 74/81/92 113/114/93 112/115/92
f 113/114/93 74/81/92 76/80/93
f 76/80/93 114/113/94 113/114/93
f 114/113/94 76/80/93 78/83/94
f 78/83/94 115/116/95 114/113/94
f 115/116/95 78/83/94 80/85/95
f 80/85/95 116/117/96 115/116/95
f 116/117/96 80/85/95 81/86/96
f 81/86/96 117/118/97 116/117/96
f 117/118/97 81/86/96 118/119/97
f 82/87/60 118/119/98 81/86/60
f 118/119/98 82/87/60 83/88/98
f 83/88/98 119/120/99 118/119/98
f 119/120/99 83/88/98 120/121/99
f 84/89/63 120/121/100 83/88/63
f 120/121/100 84/89/63 121/122/100
f 85/90/64 121/122/101 84/89/64
f 121/122/101 85/90/64 122/123/101
f 86/92/65 122/124/102 85/91/65
f 122/124/102 86/92/65 87/93/102
f 87/93/102 123/125/103 122/124/102
f 123/125/103 87/93/102 88/94/103
f 89/95/71 123/125/103 88/94/103
f 123/125/103 89/95/71 90/96/71
f 124/126/104 123/127/105 90/128/104
f 123/127/105 124/126/104 125/129/105
f 126/130/106 125/129/107 124/126/106
f 125/129/107 126/130/106 127/131/107
f 128/132/108 127/131/109 126/130/108
f 127/131/109 128/132/108 129/133/109
f 130/134/110 129/133/111 128/132/110
f 129/133/111 130/134/110 131/135/111
f 132/136/112 131/135/112 130/134/112
f 133/137/112 131/135/112 132/136/112
f 133/137/112 134/138/112 131/135/112
f 135/138/112 134/138/112 133/137/112
f 136/139/112 134/138/112 135/138/112
f 136/139/112 117/118/112 134/138/112
f 137/140/112 117/118/112 136/139/112
f 137/140/112 116/117/112 117/118/112
f 138/141/112 116/117/112 137/140/112
f 138/141/112 115/116/112 116/117/112
f 139/142/112 115/116/112 138/141/112
f 140/143/112 115/116/112 139/142/112
f 140/143/112 114/113/112 115/116/112
f 141/144/112 114/113/112 140/143/112
f 110/113/112 114/113/112 141/144/112
f 111/114/112 114/113/112 110/113/112
f 111/114/112 113/114/112 114/113/112
f 113/114/112 111/114/112 112/115/112
f 142/143/112 110/113/112 141/144/112
f 110/113/112 142/143/112 143/116/112
f 143/116/112 142/143/112 144/142/112
f 142/143/113 145/145/114 144/142/114
f 145/145/114 142/143/113 146/146/113
f 141/144/115 146/146/113 142/143/113
f 146/146/113 141/144/115 147/147/115
f 140/143/116 147/147/115 141/144/115
f 147/147/115 140/143/116 148/146/116
f 139/142/117 148/146/116 140/143/116
f 148/146/116 139/142/117 149/145/117
f 138/141/118 149/145/117 139/142/117
f 149/145/117 138/141/118 150/148/118
f 138/141/118 151/149/119 150/148/118
f 151/149/119 138/141/118 137/140/119
f 137/140/119 152/150/120 151/149/119
f 152/150/120 137/140/119 136/139/120
f 136/139/120 153/151/121 152/150/120
f 153/151/121 136/139/120 135/138/121
f 135/138/121 154/152/122 153/151/121
f 154/152/122 135/138/121 133/137/122
f 133/137/122 155/153/123 154/152/122
f 155/153/123 133/137/122 132/136/123
f 132/136/123 156/154/124 155/153/123
f 156/154/124 132/136/123 157/155/124
f 132/136/112 130/134/112 157/155/112
f 157/155/112 130/134/112 158/156/112
f 128/132/110 158/156/125 130/134/110
f 158/156/125 128/132/110 159/157/126
f 126/130/108 159/157/127 128/132/108
f 159/157/127 126/130/108 160/158/127
f 124/126/106 160/158/128 126/130/106
f 160/158/128 124/126/106 161/159/128
f 90/128/104 161/159/129 124/126/104
f 161/159/129 90/128/104 91/160/129
f 91/160/129 162/161/130 161/159/129
f 162/161/130 91/160/129 92/162/130
f 92/162/130 163/163/131 162/161/130
f 163/163/131 92/162/130 93/164/131
f 93/164/131 164/165/132 163/163/131
f 164/165/132 93/164/131 94/166/133
f 95/164/134 164/165/132 94/166/133
f 164/165/132 95/164/134 165/163/134
f 96/162/135 165/163/134 95/164/134
f 165/163/134 96/162/135 166/161/135
f 97/160/136 166/161/135 96/162/135
f 166/161/135 97/160/136 167/159/136
f 97/160/136 168/126/137 167/159/136
f 168/126/137 97/160/136 169/128/137
f 98/104/77 169/167/138 97/103/77
f 169/167/138 98/104/77 99/105/138
f 99/105/138 170/168/139 169/167/138
f 170/168/139 99/105/138 100/106/139
f 101/107/140 170/168/139 100/106/139
f 170/168/139 101/107/140 171/169/140
f 102/108/141 171/169/140 101/107/140
f 171/169/140 102/108/141 172/170/141
f 103/109/142 172/170/141 102/108/141
f 172/170/141 103/109/142 173/171/142
f 104/110/143 173/171/142 103/109/142
f 173/171/142 104/110/143 174/172/143
f 105/111/86 174/172/143 104/110/143
f 174/172/143 105/111/86 106/112/86
f 107/44/87 174/45/144 106/43/87
f 174/45/144 107/44/87 175/46/144
f 108/82/88 175/46/145 107/44/88
f 175/46/145 108/82/88 176/84/145
f 108/82/89 177/85/124 176/84/124
f 177/85/124 108/82/89 109/83/89
f 109/83/91 143/116/146 177/85/146
f 143/116/146 109/83/91 110/113/91
f 143/116/146 178/86/147 177/85/146
f 178/86/147 143/116/146 179/117/147
f 143/116/112 180/141/112 179/117/112
f 143/116/112 144/142/112 180/141/112
f 144/142/114 181/148/127 180/141/127
f 181/148/127 144/142/114 145/145/114
f 145/145/112 149/145/112 181/148/112
f 145/145/112 148/146/112 149/145/112
f 146/146/112 148/146/112 145/145/112
f 148/146/112 146/146/112 147/147/112
f 181/148/112 149/145/112 150/148/112
f 181/148/112 150/148/112 182/149/112
f 182/149/112 150/148/112 151/149/112
f 182/149/112 151/149/112 152/150/112
f 182/149/112 152/150/112 183/150/112
f 183/150/112 152/150/112 153/151/112
f 183/150/112 153/151/112 184/151/112
f 184/151/112 153/151/112 154/152/112
f 184/151/112 154/152/112 185/152/112
f 185/152/112 154/152/112 155/153/112
f 185/152/112 155/153/112 186/153/112
f 186/153/112 155/153/112 156/154/112
f 186/153/112 156/154/112 187/154/112
f 187/154/112 156/154/112 188/173/112
f 156/154/124 189/174/89 188/173/89
f 189/174/89 156/154/124 157/155/124
f 157/155/112 158/156/112 189/174/112
f 189/174/112 158/156/112 190/175/112
f 158/156/125 191/176/148 190/175/148
f 191/176/148 158/156/125 159/157/126
f 159/157/127 192/177/114 191/176/114
f 192/177/114 159/157/127 160/158/127
f 161/159/128 192/177/149 160/158/128
f 192/177/149 161/159/128 162/161/149
f 162/161/149 193/178/150 192/177/149
f 193/178/150 162/161/149 163/163/150
f 163/163/150 194/179/151 193/178/150
f 194/179/151 163/163/150 164/165/151
f 165/163/152 194/179/151 164/165/151
f 194/179/151 165/163/152 195/178/152
f 166/161/153 195/178/152 165/163/152
f 195/178/152 166/161/153 196/177/153
f 167/159/154 196/177/153 166/161/153
f 196/177/153 167/159/154 197/158/154
f 167/159/154 198/130/155 197/158/154
f 198/130/155 167/159/154 168/126/155
f 168/126/155 199/131/156 198/130/155
f 199/131/156 168/126/155 200/129/156
f 169/128/137 200/129/157 168/126/137
f 200/129/157 169/128/137 170/127/157
f 170/127/157 201/122/158 200/129/157
f 201/122/158 170/127/157 171/123/158
f 171/123/158 202/89/159 201/122/158
f 202/89/159 171/123/158 172/90/159
f 172/90/159 203/47/160 202/89/159
f 203/47/160 172/90/159 173/48/160
f 173/48/160 175/46/144 203/47/160
f 175/46/144 173/48/160 174/45/144
f 176/84/145 203/47/161 175/46/145
f 203/47/161 176/84/145 204/87/161
f 177/85/124 204/87/123 176/84/124
f 204/87/123 177/85/124 178/86/123
f 178/86/123 205/88/122 204/87/123
f 205/88/122 178/86/123 206/119/122
f 179/117/147 206/119/162 178/86/147
f 206/119/162 179/117/147 207/118/162
f 179/117/112 208/140/112 207/118/112
f 179/117/112 180/141/112 208/140/112
f 181/148/127 208/140/108 180/141/127
f 208/140/108 181/148/127 182/149/108
f 182/149/108 209/139/109 208/140/108
f 209/139/109 182/149/108 183/150/109
f 183/150/109 210/138/99 209/139/109
f 210/138/99 183/150/109 184/151/99
f 184/151/99 211/137/98 210/138/99
f 211/137/98 184/151/99 185/152/98
f 185/152/98 212/136/60 211/137/98
f 212/136/60 185/152/98 186/153/60
f 186/153/60 213/155/59 212/136/60
f 213/155/59 186/153/60 187/154/59
f 214/173/58 213/155/59 187/154/59
f 213/155/59 214/173/58 215/174/58
f 216/180/57 215/174/58 214/173/58
f 215/174/58 216/180/57 217/181/57
f 218/182/55 217/181/57 216/180/57
f 217/181/57 218/182/55 219/183/55
f 220/180/56 219/183/55 218/182/55
f 219/183/55 220/180/56 221/181/56
f 188/173/89 221/181/56 220/180/56
f 221/181/56 188/173/89 189/174/89
f 189/174/112 190/175/112 221/181/112
f 221/181/112 190/175/112 219/183/112
f 222/175/112 219/183/112 190/175/112
f 222/175/112 217/181/112 219/183/112
f 222/175/112 215/174/112 217/181/112
f 223/156/112 215/174/112 222/175/112
f 223/156/112 213/155/112 215/174/112
f 224/134/112 213/155/112 223/156/112
f 224/134/112 212/136/112 213/155/112
f 225/135/112 212/136/112 224/134/112
f 225/135/112 211/137/112 212/136/112
f 225/135/112 210/138/112 211/137/112
f 226/138/112 210/138/112 225/135/112
f 226/138/112 209/139/112 210/138/112
f 207/118/112 209/139/112 226/138/112
f 207/118/112 208/140/112 209/139/112
f 227/120/163 207/118/162 226/138/163
f 207/118/162 227/120/163 206/119/162
f 228/121/121 206/119/122 227/120/121
f 206/119/122 228/121/121 205/88/122
f 201/122/164 205/88/165 228/121/164
f 205/88/165 201/122/164 202/89/165
f 202/89/165 204/87/161 205/88/165
f 204/87/161 202/89/165 203/47/161
f 228/121/164 200/129/156 201/122/164
f 200/129/156 228/121/164 199/131/156
f 227/120/121 199/131/120 228/121/121
f 199/131/120 227/120/121 229/133/120
f 226/138/163 229/133/166 227/120/163
f 229/133/166 226/138/163 225/135/166
f 225/135/166 230/132/167 229/133/166
f 230/132/167 225/135/166 224/134/167
f 224/134/167 231/157/168 230/132/167
f 231/157/168 224/134/167 223/156/168
f 223/156/168 232/176/169 231/157/168
f 232/176/169 223/156/168 222/175/169
f 222/175/169 233/184/170 232/176/169
f 233/184/170 222/175/169 234/185/170
f 222/175/112 235/185/112 234/185/112
f 222/175/112 190/175/112 235/185/112
f 190/175/148 236/184/171 235/185/171
f 236/184/171 190/175/148 191/176/148
f 191/176/114 193/178/113 236/184/113
f 193/178/113 191/176/114 192/177/114
f 194/179/115 236/184/113 193/178/113
f 236/184/113 194/179/115 237/186/115
f 195/178/116 237/186/115 194/179/115
f 237/186/115 195/178/116 233/184/116
f 196/177/117 233/184/116 195/178/116
f 233/184/116 196/177/117 232/176/117
f 197/158/118 232/176/117 196/177/117
f 232/176/117 197/158/118 231/157/118
f 197/158/118 230/132/119 231/157/118
f 230/132/119 197/158/118 198/130/119
f 198/130/119 229/133/120 230/132/119
f 229/133/120 198/130/119 199/131/120
f 234/185/170 237/186/172 233/184/170
f 237/186/172 234/185/170 238/187/172
f 234/185/112 235/185/112 238/187/112
f 235/185/171 237/186/172 238/187/172
f 237/186/172 235/185/171 236/184/171
f 214/173/112 188/173/112 220/180/112
f 187/154/112 188/173/112 214/173/112
f 214/173/112 220/180/112 216/180/112
f 216/180/112 220/180/112 218/182/112
f 118/119/97 134/138/173 117/118/97
f 134/138/173 118/119/97 119/120/173
f 119/120/173 131/135/111 134/138/173
f 131/135/111 119/120/173 129/133/111
f 120/121/99 129/133/109 119/120/99
f 129/133/109 120/121/99 127/131/109
f 121/122/100 127/131/107 120/121/100
f 127/131/107 121/122/100 125/129/107
f 122/123/101 125/129/105 121/122/101
f 125/129/105 122/123/101 123/127/105
f 77/82/174 40/46/61 79/84/61
f 40/46/61 77/82/174 38/44/174
f 75/79/175 38/44/174 77/82/174
f 38/44/174 75/79/175 36/42/175
f 71/78/53 36/42/175 75/79/175
f 36/42/175 71/78/53 35/40/53
f 45/53/24 24/26/176 22/24/24
f 24/26/176 45/53/24 239/188/176
f 43/49/22 239/188/177 45/53/22
f 239/188/177 43/49/22 240/189/177
f 39/51/20 240/189/178 43/49/20
f 240/189/178 39/51/20 37/190/178
f 37/190/178 31/35/13 240/189/178
f 31/35/13 37/190/178 33/37/13
f 29/33/11 240/189/177 31/35/11
f 240/189/177 29/33/11 239/188/177
f 26/31/9 239/188/176 29/33/9
f 239/188/176 26/31/9 24/26/176
f 241/191/5 242/191/5 243/192/5
f 242/191/5 241/191/5 244/193/5
f 241/191/179 245/194/180 244/193/180
f 245/194/180 241/191/179 246/195/179
f 243/192/55 246/195/179 241/191/179
f 246/195/179 243/192/55 247/196/55
f 242/191/181 247/196/55 243/192/55
f 247/196/55 242/191/181 248/195/181
f 249/193/182 248/195/181 242/191/181
f 248/195/181 249/193/182 250/194/182
f 251/197/183 250/194/182 249/193/182
f 250/194/182 251/197/183 252/198/183
f 251/197/183 253/199/184 252/198/183
f 253/199/184 251/197/183 254/200/184
f 251/197/5 255/200/5 254/200/5
f 251/197/5 256/197/5 255/200/5
f 249/193/5 256/197/5 251/197/5
f 249/193/5 244/193/5 256/197/5
f 242/191/5 244/193/5 249/193/5
f 244/193/180 257/198/185 256/197/185
f 257/198/185 244/193/180 245/194/180
f 245/194/112 252/198/112 257/198/112
f 245/194/112 250/194/112 252/198/112
f 245/194/112 248/195/112 250/194/112
f 246/195/112 248/195/112 245/194/112
f 248/195/112 246/195/112 247/196/112
f 257/198/112 252/198/112 253/199/112
f 257/198/112 253/199/112 258/199/112
f 258/199/112 253/199/112 259/201/112
f 259/201/112 253/199/112 260/201/112
f 254/200/184 260/201/186 253/199/184
f 260/201/186 254/200/184 261/202/186
f 254/200/5 262/202/5 261/202/5
f 254/200/5 255/200/5 262/202/5
f 258/199/187 262/202/188 255/200/187
f 262/202/188 258/199/187 259/201/188
f 259/201/188 263/203/121 262/202/188
f 263/203/121 259/201/188 264/204/121
f 259/201/112 260/201/112 264/204/112
f 264/204/112 260/201/112 265/204/112
f 261/202/186 265/204/99 260/201/186
f 265/204/99 261/202/186 266/203/99
f 261/202/5 263/203/5 266/203/5
f 261/202/5 262/202/5 263/203/5
f 266/203/5 263/203/5 267/205/5
f 264/204/121 267/205/189 263/203/121
f 267/205/189 264/204/121 268/206/189
f 264/204/112 269/206/112 268/206/112
f 264/204/112 265/204/112 269/206/112
f 266/203/99 269/206/190 265/204/99
f 269/206/190 266/203/99 270/205/190
f 266/203/5 267/205/5 270/205/5
f 270/205/5 267/205/5 271/207/5
f 268/206/189 271/207/191 267/205/189
f 271/207/191 268/206/189 272/208/191
f 268/206/112 269/206/112 272/208/112
f 272/208/112 269/206/112 273/208/112
f 270/205/190 273/208/192 269/206/190
f 273/208/192 270/205/190 274/207/192
f 270/205/5 271/207/5 274/207/5
f 274/207/5 271/207/5 275/209/5
f 272/208/191 275/209/193 271/207/191
f 275/209/193 272/208/191 276/210/193
f 272/208/112 273/208/112 276/210/112
f 276/210/112 273/208/112 277/210/112
f 274/207/192 277/210/194 273/208/192
f 277/210/194 274/207/192 278/209/194
f 274/207/5 275/209/5 278/209/5
f 278/209/5 275/209/5 279/211/5
f 275/209/193 280/212/195 279/211/195
f 280/212/195 275/209/193 276/210/193
f 276/210/112 281/212/112 280/212/112
f 276/210/112 277/210/112 281/212/112
f 277/210/194 282/211/196 281/212/196
f 282/211/196 277/210/194 278/209/194
f 278/209/5 279/211/5 282/211/5
f 282/211/5 279/211/5 283/213/5
f 279/211/195 284/214/197 283/213/197
f 284/214/197 279/211/195 280/212/195
f 280/212/112 285/214/112 284/214/112
f 280/212/112 281/212/112 285/214/112
f 281/212/196 286/213/198 285/214/198
f 286/213/198 281/212/196 282/211/196
f 282/211/5 283/213/5 286/213/5
f 286/213/5 283/213/5 287/215/5
f 283/213/197 288/216/115 287/215/115
f 288/216/115 283/213/197 284/214/197
f 284/214/112 285/214/112 288/216/112
f 285/214/198 287/215/115 288/216/115
f 287/215/115 285/214/198 286/213/198
f 255/200/187 257/198/185 258/199/187
f 257/198/185 255/200/187 256/197/185
f 289/217/5 290/217/5 291/218/5
f 290/217/5 289/217/5 292/219/5
f 289/217/179 293/220/180 292/219/180
f 293/220/180 289/217/179 294/221/179
f 291/218/55 294/221/179 289/217/179
f 294/221/179 291/218/55 295/222/55
f 290/217/181 295/222/55 291/218/55
f 295/222/55 290/217/181 296/221/181
f 297/219/182 296/221/181 290/217/181
f 296/221/181 297/219/182 298/220/182
f 299/223/183 298/220/182 297/219/182
f 298/220/182 299/223/183 300/224/183
f 299/223/183 301/225/184 300/224/183
f 301/225/184 299/223/183 302/226/184
f 299/223/5 303/226/5 302/226/5
f 299/223/5 304/223/5 303/226/5
f 297/219/5 304/223/5 299/223/5
f 297/219/5 292/219/5 304/223/5
f 290/217/5 292/219/5 297/219/5
f 292/219/180 305/224/185 304/223/185
f 305/224/185 292/219/180 293/220/180
f 293/220/112 300/224/112 305/224/112
f 293/220/112 298/220/112 300/224/112
f 293/220/112 296/221/112 298/220/112
f 294/221/112 296/221/112 293/220/112
f 296/221/112 294/221/112 295/222/112
f 305/224/112 300/224/112 301/225/112
f 305/224/112 301/225/112 306/225/112
f 306/225/112 301/225/112 307/227/112
f 307/227/112 301/225/112 308/227/112
f 302/226/184 308/227/186 301/225/184
f 308/227/186 302/226/184 309/228/186
f 302/226/5 310/228/5 309/228/5
f 302/226/5 303/226/5 310/228/5
f 306/225/187 310/228/188 303/226/187
f 310/228/188 306/225/187 307/227/188
f 307/227/188 311/229/121 310/228/188
f 311/229/121 307/227/188 312/230/121
f 307/227/112 308/227/112 312/230/112
f 312/230/112 308/227/112 313/230/112
f 309/228/186 313/230/99 308/227/186
f 313/230/99 309/228/186 314/229/99
f 309/228/5 311/229/5 314/229/5
f 309/228/5 310/228/5 311/229/5
f 314/229/5 311/229/5 315/231/5
f 312/230/121 315/231/189 311/229/121
f 315/231/189 312/230/121 316/232/189
f 312/230/112 317/232/112 316/232/112
f 312/230/112 313/230/112 317/232/112
f 314/229/99 317/232/190 313/230/99
f 317/232/190 314/229/99 318/231/190
f 314/229/5 315/231/5 318/231/5
f 318/231/5 315/231/5 319/233/5
f 316/232/189 319/233/191 315/231/189
f 319/233/191 316/232/189 320/234/191
f 316/232/112 317/232/112 320/234/112
f 320/234/112 317/232/112 321/234/112
f 318/231/190 321/234/192 317/232/190
f 321/234/192 318/231/190 322/233/192
f 318/231/5 319/233/5 322/233/5
f 322/233/5 319/233/5 323/235/5
f 320/234/191 323/235/193 319/233/191
f 323/235/193 320/234/191 324/236/193
f 320/234/112 321/234/112 324/236/112
f 324/236/112 321/234/112 325/236/112
f 322/233/192 325/236/194 321/234/192
f 325/236/194 322/233/192 326/235/194
f 322/233/5 323/235/5 326/235/5
f 326/235/5 323/235/5 327/237/5
f 323/235/193 328/238/195 327/237/195
f 328/238/195 323/235/193 324/236/193
f 324/236/112 329/238/112 328/238/112
f 324/236/112 325/236/112 329/238/112
f 325/236/194 330/237/196 329/238/196
f 330/237/196 325/236/194 326/235/194
f 326/235/5 327/237/5 330/237/5
f 330/237/5 327/237/5 331/239/5
f 327/237/195 332/240/197 331/239/197
f 332/240/197 327/237/195 328/238/195
f 328/238/112 333/240/112 332/240/112
f 328/238/112 329/238/112 333/240/112
f 329/238/196 334/239/198 333/240/198
f 334/239/198 329/238/196 330/237/196
f 330/237/5 331/239/5 334/239/5
f 334/239/5 331/239/5 335/241/5
f 331/239/197 336/242/115 335/241/115
f 336/242/115 331/239/197 332/240/197
f 332/240/112 333/240/112 336/242/112
f 333/240/198 335/241/115 336/242/115
f 335/241/115 333/240/198 334/239/198
f 303/226/187 305/224/185 306/225/187
f 305/224/185 303/226/187 304/223/185
f 337/243/112 338/244/112 339/245/112
f 338/244/112 337/243/112 340/246/112
f 337/243/199 341/247/199 340/246/199
f 341/247/200 337/243/200 342/248/200
f 337/243/201 343/249/201 342/248/201
f 343/249/201 337/243/201 339/245/201
f 339/245/202 344/250/203 343/249/204
f 344/250/203 339/245/202 338/244/205
f 340/246/206 344/250/206 338/244/206
f 344/250/206 340/246/206 341/247/206
f 342/248/5 344/250/5 341/247/5
f 344/250/5 342/248/5 343/249/5
f 345/251/207 342/248/207 343/249/207
f 342/248/207 345/251/207 346/252/207
f 347/253/5 346/252/5 345/251/5
f 346/252/5 347/253/5 348/254/5
f 347/253/206 341/247/206 348/254/206
f 341/247/206 347/253/206 344/250/206
f 345/251/208 344/250/208 347/253/208
f 344/250/209 345/251/209 343/249/209
f 341/247/210 346/252/211 348/254/211
f 346/252/211 341/247/210 342/248/210
f 349/244/112 350/255/112 351/256/112
f 350/255/112 349/244/112 352/257/112
f 353/250/212 352/257/212 349/244/212
f 352/257/212 353/250/212 354/258/212
f 353/250/5 355/259/5 354/258/5
f 355/259/5 353/250/5 356/260/5
f 357/261/213 353/250/214 356/260/214
f 353/250/214 357/261/213 358/253/213
f 359/262/5 358/253/5 357/261/5
f 358/253/5 359/262/5 360/263/5
f 359/262/215 354/258/215 360/263/215
f 354/258/215 359/262/215 355/259/215
f 357/261/216 355/259/216 359/262/216
f 355/259/216 357/261/216 356/260/216
f 356/260/217 350/255/217 355/259/217
f 350/255/218 356/260/218 351/256/218
f 353/250/219 351/256/219 356/260/219
f 351/256/220 353/250/220 349/244/220
f 350/255/221 354/258/222 355/259/222
f 354/258/222 350/255/221 352/257/223
f 354/258/212 358/253/212 360/263/212
f 358/253/212 354/258/212 353/250/212
f 361/264/5 362/265/5 363/266/5
f 362/265/5 361/264/5 364/267/5
f 365/268/224 364/267/224 361/264/224
f 364/267/224 365/268/224 366/269/224
f 367/270/5 365/268/5 366/269/5
f 365/268/5 367/270/5 368/271/5
f 363/266/225 367/270/226 368/271/226
f 367/270/226 363/266/225 362/265/225
f 364/267/227 367/270/227 362/265/227
f 367/270/227 364/267/227 366/269/227
f 366/269/228 369/272/228 367/270/228
f 369/272/228 366/269/228 370/273/228
f 365/268/229 370/273/229 366/269/229
f 370/273/230 365/268/230 371/274/230
f 365/268/231 372/275/231 371/274/231
f 372/275/231 365/268/231 368/271/231
f 361/264/231 368/271/231 365/268/231
f 368/271/231 361/264/231 363/266/231
f 368/271/232 369/272/232 372/275/232
f 369/272/232 368/271/232 367/270/232
f 369/272/112 371/274/112 372/275/112
f 371/274/112 369/272/112 370/273/112
f 373/276/5 374/264/5 375/266/5
f 374/264/5 373/276/5 376/277/5
f 377/278/233 376/277/233 373/276/233
f 376/277/233 377/278/233 378/279/233
f 379/268/5 377/278/5 378/279/5
f 377/278/5 379/268/5 380/271/5
f 380/271/234 374/264/234 379/268/234
f 374/264/234 380/271/234 375/266/234
f 380/271/235 373/276/235 375/266/235
f 373/276/235 380/271/235 377/278/235
f 380/271/236 381/280/236 377/278/236
f 381/280/237 380/271/237 382/275/237
f 379/268/234 382/275/234 380/271/234
f 382/275/234 379/268/234 383/274/234
f 379/268/238 384/281/239 383/274/239
f 384/281/239 379/268/238 378/279/238
f 379/268/240 376/277/240 378/279/240
f 376/277/241 379/268/241 374/264/241
f 378/279/242 381/280/242 384/281/242
f 381/280/242 378/279/242 377/278/242
f 381/280/112 383/274/112 384/281/112
f 383/274/112 381/280/112 382/275/112
